
<svg width="236" height="190" viewBox="0 0 236 190" fill="none" xmlns="http://www.w3.org/2000/svg">
<path fill-rule="evenodd" clip-rule="evenodd" d="M210.306 190C225.984 170.031 235.333 144.857 235.333 117.5C235.333 52.6065 182.727 0 117.833 0C52.9399 0 0.333374 52.6065 0.333374 117.5C0.333374 144.857 9.68279 170.031 25.3607 190H210.306Z" fill="#F2F4FF"/>
<g clip-path="url(#clip0_1246_21432)">
<path d="M101.391 100.168C100.983 99.7661 100.442 99.5444 99.8643 99.5444C99.2869 99.5444 98.7456 99.7661 98.3374 100.165L93.6731 104.752L91.0726 102.195C90.6644 101.793 90.1231 101.574 89.5457 101.574C88.9683 101.574 88.427 101.795 88.0188 102.195C87.1775 103.022 87.1775 104.37 88.0188 105.197L92.1462 109.256C92.5545 109.657 93.0958 109.877 93.6731 109.877C94.2505 109.877 94.7918 109.655 95.2001 109.256L101.391 103.168C101.799 102.767 102.025 102.234 102.025 101.667C102.025 101.099 101.799 100.567 101.394 100.165L101.391 100.168Z" fill="#F9892A"/>
<path d="M157.529 160H78.1377C77.1408 160 76.3334 159.206 76.3334 158.226V78.3871C76.3334 77.4069 77.1408 76.6129 78.1377 76.6129C79.1346 76.6129 79.9421 77.4069 79.9421 78.3871V156.452H155.725V147.581C155.725 146.6 156.532 145.806 157.529 145.806C158.526 145.806 159.333 146.6 159.333 147.581V158.226C159.333 159.206 158.526 160 157.529 160Z" fill="#19339A"/>
<path d="M157.529 153.79C156.532 153.79 155.725 152.996 155.725 152.016V53.5484H97.9855C96.9886 53.5484 96.1812 52.7544 96.1812 51.7742C96.1812 50.794 96.9886 50 97.9855 50H157.529C158.526 50 159.333 50.794 159.333 51.7742V152.016C159.333 152.996 158.526 153.79 157.529 153.79Z" fill="#19339A"/>
<path d="M97.9879 73.0666H78.1378C77.407 73.0666 76.7507 72.6342 76.471 71.9711C76.1914 71.308 76.347 70.5451 76.8612 70.0372L96.7113 50.5189C97.2278 50.011 98.0037 49.8602 98.678 50.1352C99.3524 50.4102 99.7922 51.0578 99.7922 51.7741V71.2924C99.7922 72.2727 98.9848 73.0666 97.9879 73.0666ZM82.4931 69.5183H96.1813V56.0566L82.4931 69.516V69.5183Z" fill="#19339A"/>
<path d="M144.899 69.5161H108.812C107.815 69.5161 107.007 68.7221 107.007 67.7419C107.007 66.7617 107.815 65.9677 108.812 65.9677H144.899C145.896 65.9677 146.703 66.7617 146.703 67.7419C146.703 68.7221 145.896 69.5161 144.899 69.5161Z" fill="#19339A"/>
<path d="M146.703 90.8064H88.9638C87.9669 90.8064 87.1594 90.0125 87.1594 89.0322V80.1613C87.1594 79.181 87.9669 78.3871 88.9638 78.3871H146.703C147.7 78.3871 148.507 79.181 148.507 80.1613V89.0322C148.507 90.0125 147.7 90.8064 146.703 90.8064ZM90.7681 87.2581H144.899V81.9355H90.7681V87.2581Z" fill="#19339A"/>
<path d="M146.703 110.766H107.007C106.01 110.766 105.203 109.972 105.203 108.992V100.121C105.203 99.1408 106.01 98.3468 107.007 98.3468H146.703C147.7 98.3468 148.507 99.1408 148.507 100.121V108.992C148.507 109.972 147.7 110.766 146.703 110.766ZM108.812 107.218H144.899V101.895H108.812V107.218Z" fill="#F9892A"/>
<path d="M101.391 118.353C100.983 117.952 100.442 117.73 99.8643 117.73C99.2869 117.73 98.7456 117.952 98.3374 118.351L93.6731 122.937L91.0726 120.38C90.6644 119.979 90.1231 119.759 89.5457 119.759C88.9683 119.759 88.427 119.981 88.0188 120.38C87.1775 121.207 87.1775 122.556 88.0188 123.383L92.1462 127.441C92.5545 127.843 93.0958 128.062 93.6731 128.062C94.2505 128.062 94.7918 127.841 95.2001 127.441L101.391 121.354C101.799 120.952 102.025 120.42 102.025 119.852C102.025 119.284 101.799 118.752 101.394 118.351L101.391 118.353Z" fill="#F9892A"/>
<path d="M146.703 128.952H107.007C106.01 128.952 105.203 128.158 105.203 127.177V118.306C105.203 117.326 106.01 116.532 107.007 116.532H146.703C147.7 116.532 148.507 117.326 148.507 118.306V127.177C148.507 128.158 147.7 128.952 146.703 128.952ZM108.812 125.403H144.899V120.081H108.812V125.403Z" fill="#F9892A"/>
<path d="M101.391 136.982C100.983 136.581 100.442 136.359 99.8643 136.359C99.2869 136.359 98.7456 136.581 98.3374 136.98L93.6731 141.566L91.0726 139.009C90.6644 138.608 90.1231 138.388 89.5457 138.388C88.9683 138.388 88.427 138.61 88.0188 139.009C87.1775 139.836 87.1775 141.185 88.0188 142.012L92.1462 146.07C92.5545 146.472 93.0958 146.691 93.6731 146.691C94.2505 146.691 94.7918 146.47 95.2001 146.07L101.391 139.983C101.799 139.581 102.025 139.049 102.025 138.481C102.025 137.914 101.799 137.381 101.394 136.98L101.391 136.982Z" fill="#19339A"/>
<path d="M146.703 147.581H107.007C106.01 147.581 105.203 146.787 105.203 145.806V136.936C105.203 135.955 106.01 135.161 107.007 135.161H146.703C147.7 135.161 148.507 135.955 148.507 136.936V145.806C148.507 146.787 147.7 147.581 146.703 147.581ZM108.812 144.032H144.899V138.71H108.812V144.032Z" fill="#19339A"/>
</g>
<defs>
<clipPath id="clip0_1246_21432">
<rect width="83" height="110" fill="white" transform="translate(76.3334 50)"/>
</clipPath>
</defs>
</svg>
