
<svg width="235" height="190" viewBox="0 0 235 190" fill="none" xmlns="http://www.w3.org/2000/svg">
<path fill-rule="evenodd" clip-rule="evenodd" d="M209.973 190C225.651 170.031 235 144.857 235 117.5C235 52.6065 182.393 0 117.5 0C52.6065 0 0 52.6065 0 117.5C0 144.857 9.34941 170.031 25.0274 190H209.973Z" fill="#F2F4FF"/>
<g clip-path="url(#clip0_1246_20890)">
<path d="M111.47 164C110.886 164 110.318 163.702 109.997 163.172L104.431 154.046L99.4372 157.198C98.9066 157.535 98.2335 157.554 97.6834 157.25C97.1333 156.946 96.7903 156.368 96.7903 155.738V131.207C96.7903 130.599 97.1117 130.034 97.6359 129.723C98.1601 129.413 98.8095 129.402 99.3445 129.693L121.78 141.959C122.332 142.261 122.675 142.837 122.677 143.465C122.68 144.093 122.341 144.673 121.793 144.979L116.035 148.194L121.579 157.284C121.834 157.703 121.899 158.208 121.758 158.678C121.618 159.146 121.286 159.534 120.844 159.744L112.208 163.832C111.971 163.944 111.719 163.998 111.47 163.998V164ZM104.992 149.928C105.124 149.928 105.255 149.943 105.385 149.973C105.836 150.079 106.224 150.36 106.466 150.754L112.135 160.05L117.634 157.446L112.156 148.463C111.913 148.062 111.841 147.581 111.96 147.126C112.079 146.673 112.379 146.287 112.789 146.058L117.383 143.493L100.242 134.122V152.612L104.071 150.196C104.349 150.021 104.669 149.93 104.992 149.93V149.928Z" fill="#F9892A"/>
<path d="M165.823 145.016H127.855C126.901 145.016 126.129 144.244 126.129 143.29C126.129 142.337 126.901 141.565 127.855 141.565H165.823C166.774 141.565 167.548 140.79 167.548 139.839V62.1774C167.548 61.2261 166.774 60.4516 165.823 60.4516H69.1774C68.2261 60.4516 67.4516 61.2261 67.4516 62.1774V139.839C67.4516 140.79 68.2261 141.565 69.1774 141.565H91.6129C92.5664 141.565 93.3387 142.337 93.3387 143.29C93.3387 144.244 92.5664 145.016 91.6129 145.016H69.1774C66.3234 145.016 64 142.693 64 139.839V62.1774C64 59.3234 66.3234 57 69.1774 57H165.823C168.677 57 171 59.3234 171 62.1774V139.839C171 142.693 168.677 145.016 165.823 145.016Z" fill="#19339A"/>
<path d="M112.322 100.145H76.0805C75.127 100.145 74.3547 99.3729 74.3547 98.4194V89.7903C74.3547 88.8368 75.127 88.0645 76.0805 88.0645H112.322C113.276 88.0645 114.048 88.8368 114.048 89.7903V98.4194C114.048 99.3729 113.276 100.145 112.322 100.145ZM77.8063 96.6935H110.597V91.5161H77.8063V96.6935Z" fill="#19339A"/>
<path d="M158.919 117.403H76.0805C75.127 117.403 74.3547 116.631 74.3547 115.677V105.323C74.3547 104.369 75.127 103.597 76.0805 103.597H158.919C159.873 103.597 160.645 104.369 160.645 105.323V115.677C160.645 116.631 159.873 117.403 158.919 117.403ZM77.8063 113.952H157.193V107.048H77.8063V113.952Z" fill="#19339A"/>
<path d="M122.677 132.936H117.5C116.546 132.936 115.774 132.163 115.774 131.21C115.774 130.256 116.546 129.484 117.5 129.484H120.952V124.306H77.8063V129.484H91.6128C92.5663 129.484 93.3386 130.256 93.3386 131.21C93.3386 132.163 92.5663 132.936 91.6128 132.936H76.0805C75.127 132.936 74.3547 132.163 74.3547 131.21V122.581C74.3547 121.627 75.127 120.855 76.0805 120.855H122.677C123.631 120.855 124.403 121.627 124.403 122.581V131.21C124.403 132.163 123.631 132.936 122.677 132.936Z" fill="#19339A"/>
<path d="M158.919 100.145H122.677C121.724 100.145 120.952 99.3729 120.952 98.4194V89.7903C120.952 88.8368 121.724 88.0645 122.677 88.0645H158.919C159.873 88.0645 160.645 88.8368 160.645 89.7903V98.4194C160.645 99.3729 159.873 100.145 158.919 100.145ZM124.403 96.6935H157.194V91.5161H124.403V96.6935Z" fill="#19339A"/>
<path d="M169.274 74.2581H65.7258C64.7723 74.2581 64 73.4858 64 72.5323C64 71.5788 64.7723 70.8065 65.7258 70.8065H169.274C170.228 70.8065 171 71.5788 171 72.5323C171 73.4858 170.228 74.2581 169.274 74.2581Z" fill="#19339A"/>
<path d="M74.355 67.3548C75.3081 67.3548 76.0808 66.5821 76.0808 65.629C76.0808 64.6759 75.3081 63.9032 74.355 63.9032C73.4018 63.9032 72.6292 64.6759 72.6292 65.629C72.6292 66.5821 73.4018 67.3548 74.355 67.3548Z" fill="#19339A"/>
<path d="M82.9839 67.3548C83.937 67.3548 84.7097 66.5821 84.7097 65.629C84.7097 64.6759 83.937 63.9032 82.9839 63.9032C82.0307 63.9032 81.2581 64.6759 81.2581 65.629C81.2581 66.5821 82.0307 67.3548 82.9839 67.3548Z" fill="#19339A"/>
<path d="M91.613 67.3548C92.5662 67.3548 93.3388 66.5821 93.3388 65.629C93.3388 64.6759 92.5662 63.9032 91.613 63.9032C90.6599 63.9032 89.8872 64.6759 89.8872 65.629C89.8872 66.5821 90.6599 67.3548 91.613 67.3548Z" fill="#19339A"/>
<path d="M91.6128 82.8871H76.0805C75.127 82.8871 74.3547 82.1148 74.3547 81.1613C74.3547 80.2078 75.127 79.4355 76.0805 79.4355H91.6128C92.5663 79.4355 93.3386 80.2078 93.3386 81.1613C93.3386 82.1148 92.5663 82.8871 91.6128 82.8871Z" fill="#19339A"/>
<path d="M158.919 124.306H131.306C130.353 124.306 129.581 123.534 129.581 122.581C129.581 121.627 130.353 120.855 131.306 120.855H158.919C159.873 120.855 160.645 121.627 160.645 122.581C160.645 123.534 159.873 124.306 158.919 124.306Z" fill="#19339A"/>
<path d="M158.919 132.935H131.306C130.353 132.935 129.581 132.163 129.581 131.21C129.581 130.256 130.353 129.484 131.306 129.484H158.919C159.873 129.484 160.645 130.256 160.645 131.21C160.645 132.163 159.873 132.935 158.919 132.935Z" fill="#19339A"/>
</g>
<defs>
<clipPath id="clip0_1246_20890">
<rect width="107" height="107" fill="white" transform="translate(64 57)"/>
</clipPath>
</defs>
</svg>
