
<svg width="236" height="190" viewBox="0 0 236 190" fill="none" xmlns="http://www.w3.org/2000/svg">
<path fill-rule="evenodd" clip-rule="evenodd" d="M210.639 190C226.317 170.031 235.667 144.857 235.667 117.5C235.667 52.6065 183.06 0 118.167 0C53.2733 0 0.666748 52.6065 0.666748 117.5C0.666748 144.857 10.0162 170.031 25.6941 190H210.639Z" fill="#F2F4FF"/>
<g clip-path="url(#clip0_1246_21465)">
<path d="M161.208 103.624C160.739 103.624 160.27 103.445 159.91 103.088L146.16 89.3374C145.444 88.6215 145.444 87.4612 146.16 86.7453C146.876 86.0293 148.036 86.0293 148.752 86.7453L162.503 100.496C163.218 101.212 163.218 102.372 162.503 103.088C162.143 103.447 161.674 103.624 161.205 103.624H161.208Z" fill="#19339A"/>
<path d="M147.459 103.624C146.99 103.624 146.521 103.445 146.162 103.088C145.446 102.372 145.446 101.212 146.162 100.496L159.913 86.7453C160.629 86.0293 161.789 86.0293 162.505 86.7453C163.221 87.4612 163.221 88.6215 162.505 89.3374L148.754 103.088C148.395 103.447 147.926 103.624 147.457 103.624H147.459Z" fill="#19339A"/>
<path d="M163.499 114.166H145.166C143.312 114.166 141.525 113.613 139.999 112.572C138.511 111.555 137.365 110.139 136.682 108.479C136.299 107.543 136.745 106.47 137.683 106.086C138.619 105.702 139.692 106.149 140.076 107.087C140.926 109.161 142.926 110.501 145.166 110.501H163.499C166.531 110.501 169 108.034 169 105V86.6667C169 83.6347 166.533 81.166 163.499 81.166H148.833C147.821 81.166 146.999 80.3446 146.999 79.3325C146.999 78.3203 147.821 77.4989 148.833 77.4989H163.499C165.947 77.4989 168.25 78.4527 169.98 80.183C171.711 81.9134 172.664 84.216 172.664 86.6644V104.998C172.664 107.446 171.711 109.749 169.98 111.479C168.25 113.21 165.947 114.163 163.499 114.163V114.166Z" fill="#19339A"/>
<path d="M87.8742 103.624C87.4052 103.624 86.9361 103.445 86.577 103.088L72.8265 89.3373C72.1106 88.6214 72.1106 87.4611 72.8265 86.7452C73.5424 86.0293 74.7027 86.0293 75.4186 86.7452L89.1692 100.496C89.8851 101.212 89.8851 102.372 89.1692 103.088C88.8101 103.447 88.341 103.624 87.872 103.624H87.8742Z" fill="#19339A"/>
<path d="M74.1261 103.624C73.6571 103.624 73.188 103.445 72.8289 103.088C72.113 102.372 72.113 101.212 72.8289 100.496L86.5795 86.7452C87.2954 86.0293 88.4557 86.0293 89.1716 86.7452C89.8875 87.4611 89.8875 88.6214 89.1716 89.3373L75.421 103.088C75.062 103.447 74.5929 103.624 74.1239 103.624H74.1261Z" fill="#19339A"/>
<path d="M90.1656 114.166H71.8323C69.3838 114.166 67.0812 113.212 65.3509 111.481C63.6206 109.751 62.6667 107.448 62.6667 105V86.6666C62.6667 84.2182 63.6206 81.9156 65.3509 80.1852C67.0812 78.4549 69.3838 77.5011 71.8323 77.5011H86.4985C87.5107 77.5011 88.3321 78.3225 88.3321 79.3347C88.3321 80.3468 87.5107 81.1682 86.4985 81.1682H71.8323C68.8003 81.1682 66.3316 83.6347 66.3316 86.6689V105.002C66.3316 108.034 68.7981 110.503 71.8323 110.503H90.1656C91.2878 110.503 92.365 110.168 93.2851 109.533C94.1851 108.912 94.8741 108.05 95.2758 107.042C95.6506 106.102 96.7189 105.644 97.6592 106.019C98.5995 106.394 99.0574 107.462 98.6826 108.402C98.0093 110.085 96.8647 111.52 95.3678 112.552C93.835 113.609 92.0351 114.17 90.1679 114.17L90.1656 114.166Z" fill="#19339A"/>
<path d="M133.251 103.166H125.001C123.989 103.166 123.167 102.345 123.167 101.333C123.167 100.321 123.989 99.4993 125.001 99.4993H133.251C137.295 99.4993 140.585 96.2092 140.585 92.1651V60.9991C140.585 56.9549 137.295 53.6649 133.251 53.6649H102.085C98.0407 53.6649 94.7506 56.9549 94.7506 60.9991V92.1651C94.7506 96.2092 98.0407 99.4993 102.085 99.4993H103C104.013 99.4993 104.834 100.321 104.834 101.333C104.834 102.345 104.013 103.166 103 103.166H102.085C99.1471 103.166 96.3844 102.022 94.3062 99.9437C92.2281 97.8655 91.0835 95.1028 91.0835 92.1651V60.9991C91.0835 58.0614 92.2281 55.2987 94.3062 53.2205C96.3844 51.1423 99.1471 49.9977 102.085 49.9977H133.251C136.189 49.9977 138.951 51.1423 141.029 53.2205C143.108 55.2987 144.252 58.0614 144.252 60.9991V92.1651C144.252 95.1028 143.108 97.8655 141.029 99.9437C138.951 102.022 136.189 103.166 133.251 103.166Z" fill="#F9892A"/>
<path d="M115.833 88.958C114.242 88.958 112.747 88.3386 111.621 87.2142L101.079 76.6707C98.7566 74.3479 98.7566 70.5663 101.079 68.2435C103.402 65.9207 107.182 65.9207 109.507 68.2435L115.835 74.5723L126.747 63.6608C129.07 61.3402 132.849 61.338 135.172 63.6608C137.495 65.9836 137.495 69.7651 135.172 72.0879L120.048 87.212C118.921 88.3364 117.427 88.958 115.835 88.958H115.833ZM105.292 70.1691C104.704 70.1691 104.118 70.3913 103.672 70.8401C102.778 71.7333 102.778 73.1876 103.672 74.0808L114.213 84.6221C114.646 85.0553 115.22 85.2931 115.833 85.2931C116.446 85.2931 117.02 85.0553 117.453 84.6221L132.578 69.4981C133.471 68.6049 133.471 67.1506 132.578 66.2574C131.684 65.3641 130.23 65.3641 129.337 66.2574L117.128 78.4661C116.785 78.8095 116.318 79.0025 115.831 79.0025C115.344 79.0025 114.879 78.8095 114.534 78.4661L106.91 70.8401C106.463 70.3935 105.878 70.1713 105.29 70.1713L105.292 70.1691Z" fill="#F9892A"/>
<path d="M128.304 160H124.114C121.527 160 119 159.497 116.61 158.508C114.217 157.518 112.079 156.086 110.247 154.257L89.2499 133.26C88.5564 132.566 88.1749 131.646 88.1749 130.668C88.1749 129.689 88.5564 128.767 89.2499 128.075L89.9793 127.346C91.5189 125.807 93.5634 124.949 95.7403 124.929C95.765 124.929 95.7897 124.929 95.8166 124.929C97.9644 124.929 99.9954 125.748 101.544 127.243L107.586 133.073V102.244C107.586 98.7093 110.465 95.8322 114.002 95.8322C115.716 95.8322 117.328 96.4988 118.54 97.7107C119.752 98.9226 120.418 100.534 120.418 102.249V113.867C121.253 113.47 122.184 113.248 123.167 113.248C125.735 113.248 127.954 114.763 128.98 116.946C129.956 116.345 131.105 115.997 132.335 115.997C134.903 115.997 137.122 117.512 138.148 119.695C139.124 119.094 140.273 118.746 141.503 118.746C145.042 118.746 147.919 121.625 147.919 125.162V140.383C147.919 143.054 147.446 145.572 146.51 147.865C145.585 150.134 144.203 152.197 142.403 153.997C140.605 155.794 138.413 157.291 136.065 158.324C133.545 159.432 130.935 159.993 128.307 159.993L128.304 160ZM95.8121 128.596C95.7987 128.596 95.7852 128.596 95.7695 128.596C94.5598 128.607 93.4242 129.083 92.5692 129.938L91.8398 130.668L112.837 151.665C114.325 153.153 116.067 154.315 118.01 155.121C119.954 155.927 122.007 156.335 124.112 156.335H128.302C130.419 156.335 132.533 155.877 134.584 154.975C136.518 154.125 138.325 152.89 139.806 151.411C142.753 148.465 144.248 144.757 144.248 140.39V125.169C144.248 123.652 143.013 122.42 141.498 122.42C139.984 122.42 138.756 123.645 138.749 125.156V127.921C138.749 128.933 137.928 129.754 136.916 129.754C135.904 129.754 135.082 128.933 135.082 127.921V125.171C135.082 125.171 135.082 125.16 135.082 125.153V122.42C135.082 120.903 133.848 119.671 132.333 119.671C130.818 119.671 129.584 120.905 129.584 122.42V127.003C129.584 128.015 128.762 128.836 127.75 128.836C126.738 128.836 125.917 128.015 125.917 127.003V119.668C125.917 118.151 124.682 116.919 123.167 116.919C121.653 116.919 120.427 118.142 120.418 119.651V127.003C120.418 128.015 119.597 128.836 118.585 128.836C117.572 128.836 116.751 128.015 116.751 127.003V119.668C116.751 119.668 116.751 119.651 116.751 119.642V102.253C116.751 101.519 116.466 100.828 115.945 100.31C115.427 99.7911 114.736 99.5038 114.002 99.5038C112.485 99.5038 111.253 100.736 111.253 102.249V133.082C111.253 133.841 111.028 134.564 110.602 135.174C110.209 135.737 109.661 136.179 109.022 136.453C107.664 137.03 106.102 136.741 105.038 135.715L98.9945 129.884C98.1349 129.054 97.0061 128.598 95.8121 128.598V128.596Z" fill="#19339A"/>
</g>
<defs>
<clipPath id="clip0_1246_21465">
<rect width="110" height="110" fill="white" transform="translate(62.6667 50)"/>
</clipPath>
</defs>
</svg>
