
<svg width="235" height="190" viewBox="0 0 235 190" fill="none" xmlns="http://www.w3.org/2000/svg">
<path fill-rule="evenodd" clip-rule="evenodd" d="M209.973 190C225.651 170.031 235 144.857 235 117.5C235 52.6065 182.393 0 117.5 0C52.6065 0 0 52.6065 0 117.5C0 144.857 9.34941 170.031 25.0274 190H209.973Z" fill="#F2F4FF"/>
<path d="M176.866 136.01H171.726V72.2065C171.726 66.3633 166.941 61.6087 161.062 61.6087H143.009C142.358 61.3371 141.647 61.1855 140.899 61.1855H140.744C141.104 57.2626 140.545 53.6072 138.1 51.392C137.214 50.5898 136.525 49.7938 135.991 48.9558C133.883 45.6457 127.151 38 109.993 38C109.843 38 109.692 38 109.54 38.0021C106.34 38.0274 103.247 39.3813 101.051 41.7123C99.0618 43.8285 97.9685 46.509 97.9177 49.3453C96.4387 49.9117 93.9618 51.2825 92.4892 54.4031C91.5844 56.3193 91.2157 58.5765 91.3535 61.1497C90.811 61.2297 90.2983 61.3813 89.8194 61.6087H71.949C66.0692 61.6087 61.2848 66.3633 61.2848 72.2065V136.01H56.1381C53.8561 136.01 52 137.855 52 140.123V145.172C52 153.348 58.6935 160 66.921 160H166.079C174.307 160 181 153.348 181 145.172V140.123C181 137.855 179.144 136.01 176.862 136.01H176.866ZM96.0404 142.641V138.874H136.977V142.641C136.977 144.806 135.205 146.566 133.027 146.566H99.992C97.8138 146.566 96.0425 144.806 96.0425 142.641H96.0404ZM96.8498 127.971V119.302C96.8498 115.246 93.5295 111.947 89.4486 111.947H80.5431V111.799C80.5431 104.377 86.6199 98.3378 94.0889 98.3378H97.5363L106.764 111.734C107.041 112.136 107.491 112.357 107.955 112.357C108.175 112.357 108.398 112.307 108.607 112.201L116.513 108.209L124.416 112.201C124.624 112.307 124.848 112.357 125.069 112.357C125.531 112.357 125.982 112.136 126.259 111.734L135.487 98.3378H138.934C146.403 98.3378 152.48 104.377 152.48 111.799V111.947H143.575C139.494 111.947 136.171 115.246 136.171 119.302V127.971H96.8561H96.8498ZM80.5409 127.971V114.81H89.4465C91.9383 114.81 93.966 116.825 93.966 119.302V127.971H80.5409ZM75.4282 127.971C73.6801 127.971 72.2584 126.558 72.2584 124.821V75.6619C72.2584 73.9247 73.6801 72.5118 75.4282 72.5118H86.6899V73.3962C86.6899 76.3883 89.1393 78.8246 92.1523 78.8246H97.5193C97.7206 79.1889 97.9134 79.5489 98.1232 79.9195C98.1232 79.9195 98.1232 79.9195 98.1232 79.9216C99.7886 84.3498 102.528 88.5106 105.908 91.4902V95.4783H94.0847C85.0266 95.4783 77.6572 102.802 77.6572 111.803V127.975H75.426L75.4282 127.971ZM96.0022 75.9567H92.1523C90.7305 75.9567 89.5736 74.807 89.5736 73.3941V66.498C89.5736 65.241 90.4911 64.1966 91.6946 63.9818C92.3239 67.4814 93.7562 71.4758 96.0043 75.9588L96.0022 75.9567ZM135.239 78.9383H139.407V80.7113C139.407 81.5788 138.697 82.2842 137.824 82.2842H133.885C134.402 81.1914 134.856 80.0732 135.237 78.9404L135.239 78.9383ZM130.679 82.2821H124.077C123.511 80.6691 121.984 79.5005 120.168 79.5005H117.691C115.4 79.5005 113.536 81.3514 113.536 83.6297C113.536 85.908 115.4 87.7589 117.691 87.7589H120.168C121.918 87.7589 123.412 86.6724 124.022 85.1458H128.931C125.728 89.7488 121.253 93.1073 116.504 93.1073C109.796 93.1073 103.639 86.4029 100.831 78.9572L101.706 62.7647C101.734 62.2551 102.001 61.8129 102.437 61.5476C102.869 61.2907 103.38 61.2592 103.84 61.4676C109.112 63.8533 119.299 67.0645 128.285 61.7392C128.584 61.5624 128.933 61.5392 129.249 61.6782C129.425 61.7582 129.736 61.9561 129.821 62.3836L132.633 77.6538C132.127 79.2331 131.468 80.7934 130.677 82.2821H130.679ZM121.441 83.6297C121.441 84.3288 120.871 84.8952 120.17 84.8952H117.693C116.989 84.8952 116.419 84.3288 116.419 83.6297C116.419 82.9306 116.989 82.3663 117.693 82.3663H120.17C120.871 82.3663 121.441 82.9327 121.441 83.6297ZM106.728 98.3378L114.144 106.19L108.427 109.079L101.028 98.3378H106.73H106.728ZM126.287 98.3378H131.989L124.592 109.079L118.873 106.19L126.287 98.3378ZM124.221 96.3374L116.506 104.507L108.792 96.3374V93.6316C111.188 95.0993 113.796 95.971 116.506 95.971C119.216 95.971 121.825 95.1014 124.221 93.6337V96.3374ZM139.047 119.302C139.047 116.825 141.074 114.81 143.566 114.81H152.472V127.971H139.045V119.302H139.047ZM155.356 111.799C155.356 102.798 147.986 95.4741 138.928 95.4741H127.105V91.488C129.107 89.7235 130.891 87.5547 132.353 85.1479H137.826C140.288 85.1479 142.291 83.158 142.291 80.7113V78.7383C144.628 78.1234 146.363 76.0241 146.363 73.5099V72.5097H157.587C159.335 72.5097 160.756 73.9226 160.756 75.6598V124.819C160.756 126.556 159.335 127.969 157.587 127.969H155.356V111.797V111.799ZM140.339 64.0492H140.901C142.322 64.0492 143.479 65.1988 143.479 66.6138V73.5099C143.479 74.9228 142.322 76.0725 140.901 76.0725H136.477C137.669 73.3288 139.466 68.7027 140.337 64.0492H140.339ZM95.0763 55.6728C96.5722 52.4364 99.5343 51.8237 99.6488 51.8026C100.373 51.6721 100.882 51.0193 100.829 50.2886L100.816 50.0781C100.674 47.705 101.505 45.4288 103.16 43.6684C104.817 41.906 107.152 40.8848 109.565 40.8658C109.711 40.8658 109.853 40.8637 109.997 40.8637C125.719 40.8637 131.707 47.5808 133.557 50.4866C134.228 51.5436 135.08 52.5312 136.159 53.5082C139.846 56.8457 137.195 66.4412 134.68 72.8614L132.652 61.8508C132.41 60.6169 131.578 59.5746 130.423 59.0629C129.26 58.545 127.906 58.625 126.808 59.2777C118.949 63.9333 109.794 61.0149 105.035 58.8587C103.715 58.2607 102.187 58.347 100.946 59.0966C99.6975 59.8484 98.9072 61.1602 98.8288 62.6089L98.2164 73.9479C93.3664 63.9881 93.7414 58.5513 95.0742 55.6707L95.0763 55.6728ZM64.1707 72.2065C64.1707 67.9425 67.6626 64.4724 71.9532 64.4724H87.0946C86.8403 65.0999 86.692 65.78 86.692 66.498V69.646H75.4303C72.0931 69.646 69.3767 72.3455 69.3767 75.6619V124.821C69.3767 128.137 72.0931 130.837 75.4303 130.837H157.587C160.924 130.837 163.64 128.137 163.64 124.821V75.6619C163.64 72.3455 160.924 69.646 157.587 69.646H146.363V66.6138C146.363 65.8537 146.202 65.1294 145.916 64.4724H161.064C165.354 64.4724 168.846 67.9425 168.846 72.2065V136.008H64.1707V72.2065ZM178.12 145.172C178.12 151.769 172.72 157.136 166.081 157.136H66.9252C60.2868 157.136 54.8859 151.769 54.8859 145.172V140.123C54.8859 139.434 55.4495 138.876 56.1402 138.876H93.1545V142.643C93.1545 146.387 96.2205 149.434 99.9878 149.434H133.029C136.796 149.434 139.862 146.387 139.862 142.643V138.876H176.866C177.559 138.876 178.12 139.436 178.12 140.123V145.172Z" fill="#19339A"/>
<path d="M208.252 0H167.145C163.425 0 160.397 3.03099 160.397 6.75404V34.8517C160.397 38.5747 163.425 41.6057 167.145 41.6057H169.838C170.316 41.6057 170.724 41.9482 170.806 42.4198L171.631 47.1187C171.891 48.5897 172.878 49.7791 174.277 50.3046C174.76 50.4876 175.259 50.5744 175.753 50.5744C176.689 50.5744 177.603 50.2553 178.362 49.643L188.028 41.8239C188.201 41.6831 188.419 41.6057 188.642 41.6057H208.252C211.972 41.6057 215 38.5747 215 34.8517V6.75404C215 3.03099 211.972 0 208.252 0ZM211.812 34.8493C211.812 36.8129 210.216 38.4129 208.252 38.4129H188.642C187.69 38.4129 186.76 38.7436 186.021 39.3395L176.358 47.1586C175.967 47.4753 175.554 47.3721 175.397 47.3135C175.24 47.2525 174.863 47.0624 174.774 46.5628L173.949 41.8638C173.597 39.865 171.87 38.4129 169.84 38.4129H167.147C165.185 38.4129 163.587 36.8153 163.587 34.8493V6.75404C163.587 4.79046 165.183 3.19052 167.147 3.19052H208.254C210.216 3.19052 211.815 4.78812 211.815 6.75404V34.8517L211.812 34.8493Z" fill="#F9892A"/>
<path d="M204.345 9.2619H171.057C170.175 9.2619 169.463 9.97508 169.463 10.8572C169.463 11.7392 170.175 12.4524 171.057 12.4524H204.345C205.227 12.4524 205.939 11.7392 205.939 10.8572C205.939 9.97508 205.227 9.2619 204.345 9.2619Z" fill="#F9892A"/>
<path d="M204.345 18.7935H171.057C170.175 18.7935 169.463 19.5067 169.463 20.3888C169.463 21.2709 170.175 21.984 171.057 21.984H204.345C205.227 21.984 205.939 21.2709 205.939 20.3888C205.939 19.5067 205.227 18.7935 204.345 18.7935Z" fill="#F9892A"/>
<path d="M204.345 28.3252H187.702C186.821 28.3252 186.108 29.0384 186.108 29.9205C186.108 30.8025 186.821 31.5157 187.702 31.5157H204.345C205.227 31.5157 205.939 30.8025 205.939 29.9205C205.939 29.0384 205.227 28.3252 204.345 28.3252Z" fill="#F9892A"/>
</svg>
