
<svg width="1320" height="32" viewBox="0 0 1320 32" fill="none" xmlns="http://www.w3.org/2000/svg">
<path d="M111.178 10.125V21.5H109.03V10.125H111.178ZM115.764 15.0391V16.7344H110.616V15.0391H115.764ZM116.366 10.125V11.8203H110.616V10.125H116.366ZM121.296 21.6562C120.655 21.6562 120.08 21.5521 119.569 21.3438C119.059 21.1354 118.624 20.8464 118.264 20.4766C117.91 20.1016 117.637 19.6667 117.444 19.1719C117.257 18.6719 117.163 18.1354 117.163 17.5625V17.25C117.163 16.599 117.257 16.0078 117.444 15.4766C117.632 14.9401 117.897 14.4792 118.241 14.0938C118.585 13.7083 118.996 13.4115 119.475 13.2031C119.955 12.9948 120.483 12.8906 121.061 12.8906C121.66 12.8906 122.189 12.9922 122.647 13.1953C123.106 13.3932 123.488 13.6745 123.796 14.0391C124.103 14.4036 124.335 14.8411 124.491 15.3516C124.647 15.8568 124.725 16.4167 124.725 17.0312V17.8984H118.1V16.4766H122.694V16.3203C122.684 15.9922 122.621 15.6927 122.507 15.4219C122.392 15.1458 122.215 14.9271 121.975 14.7656C121.736 14.599 121.426 14.5156 121.046 14.5156C120.738 14.5156 120.47 14.5833 120.241 14.7188C120.017 14.849 119.83 15.0365 119.678 15.2812C119.533 15.5208 119.423 15.8073 119.35 16.1406C119.277 16.474 119.241 16.8438 119.241 17.25V17.5625C119.241 17.9167 119.288 18.2448 119.382 18.5469C119.481 18.849 119.624 19.112 119.811 19.3359C120.004 19.5547 120.233 19.7266 120.499 19.8516C120.77 19.9714 121.077 20.0312 121.421 20.0312C121.853 20.0312 122.244 19.9479 122.593 19.7812C122.947 19.6094 123.254 19.3568 123.514 19.0234L124.553 20.1016C124.376 20.362 124.137 20.612 123.835 20.8516C123.538 21.0911 123.178 21.2865 122.757 21.4375C122.335 21.5833 121.848 21.6562 121.296 21.6562ZM130.764 19.7031V15.8047C130.764 15.5182 130.715 15.2708 130.616 15.0625C130.517 14.8542 130.366 14.6927 130.163 14.5781C129.96 14.4635 129.702 14.4062 129.389 14.4062C129.113 14.4062 128.871 14.4531 128.663 14.5469C128.46 14.6406 128.303 14.7734 128.194 14.9453C128.085 15.112 128.03 15.3047 128.03 15.5234H125.96C125.96 15.1745 126.043 14.8438 126.21 14.5312C126.376 14.2135 126.613 13.9323 126.921 13.6875C127.233 13.4375 127.606 13.2422 128.038 13.1016C128.475 12.9609 128.965 12.8906 129.507 12.8906C130.147 12.8906 130.718 13 131.218 13.2188C131.723 13.4323 132.119 13.7552 132.405 14.1875C132.697 14.6198 132.843 15.1641 132.843 15.8203V19.5078C132.843 19.9297 132.869 20.2917 132.921 20.5938C132.978 20.8906 133.061 21.1484 133.171 21.3672V21.5H131.069C130.97 21.2865 130.895 21.0156 130.843 20.6875C130.79 20.3542 130.764 20.026 130.764 19.7031ZM131.053 16.3516L131.069 17.5781H129.764C129.441 17.5781 129.158 17.612 128.913 17.6797C128.668 17.7422 128.468 17.8359 128.311 17.9609C128.155 18.0807 128.038 18.2266 127.96 18.3984C127.882 18.5651 127.843 18.7552 127.843 18.9688C127.843 19.1771 127.889 19.3646 127.983 19.5312C128.082 19.6979 128.223 19.8307 128.405 19.9297C128.593 20.0234 128.811 20.0703 129.061 20.0703C129.426 20.0703 129.744 19.9974 130.014 19.8516C130.285 19.7005 130.496 19.5182 130.647 19.3047C130.798 19.0911 130.879 18.888 130.889 18.6953L131.483 19.5859C131.41 19.7995 131.301 20.026 131.155 20.2656C131.009 20.5052 130.822 20.7292 130.593 20.9375C130.363 21.1458 130.087 21.3177 129.764 21.4531C129.441 21.5885 129.066 21.6562 128.639 21.6562C128.093 21.6562 127.603 21.5469 127.171 21.3281C126.738 21.1094 126.397 20.8099 126.147 20.4297C125.897 20.0495 125.772 19.6172 125.772 19.1328C125.772 18.6849 125.856 18.2891 126.022 17.9453C126.189 17.6016 126.436 17.3125 126.764 17.0781C127.093 16.8385 127.499 16.6589 127.983 16.5391C128.473 16.4141 129.033 16.3516 129.663 16.3516H131.053ZM138.702 13.0469V14.5312H133.858V13.0469H138.702ZM135.155 10.9688H137.225V19.0625C137.225 19.3125 137.259 19.5052 137.327 19.6406C137.395 19.776 137.496 19.8672 137.632 19.9141C137.767 19.9609 137.928 19.9844 138.116 19.9844C138.251 19.9844 138.376 19.9766 138.491 19.9609C138.606 19.9453 138.702 19.9297 138.78 19.9141L138.788 21.4609C138.616 21.5182 138.421 21.5651 138.202 21.6016C137.988 21.638 137.746 21.6562 137.475 21.6562C137.012 21.6562 136.606 21.5781 136.257 21.4219C135.908 21.2604 135.637 21.0026 135.444 20.6484C135.251 20.2891 135.155 19.8151 135.155 19.2266V10.9688ZM145.108 19.4922V13.0469H147.186V21.5H145.233L145.108 19.4922ZM145.374 17.7422L146.014 17.7266C146.014 18.2943 145.952 18.8177 145.827 19.2969C145.702 19.776 145.507 20.1927 145.241 20.5469C144.981 20.8958 144.65 21.1693 144.249 21.3672C143.848 21.5599 143.374 21.6562 142.827 21.6562C142.41 21.6562 142.03 21.599 141.686 21.4844C141.343 21.3646 141.046 21.1797 140.796 20.9297C140.551 20.6745 140.361 20.349 140.225 19.9531C140.09 19.5521 140.022 19.0703 140.022 18.5078V13.0469H142.085V18.5234C142.085 18.8047 142.116 19.0391 142.178 19.2266C142.246 19.4141 142.337 19.5677 142.452 19.6875C142.572 19.8021 142.71 19.8854 142.866 19.9375C143.027 19.9844 143.199 20.0078 143.382 20.0078C143.882 20.0078 144.275 19.9089 144.561 19.7109C144.853 19.5078 145.061 19.237 145.186 18.8984C145.311 18.5547 145.374 18.1693 145.374 17.7422ZM151.077 14.7734V21.5H149.014V13.0469H150.968L151.077 14.7734ZM153.647 12.9922L153.616 14.9141C153.501 14.8932 153.371 14.8776 153.225 14.8672C153.085 14.8568 152.952 14.8516 152.827 14.8516C152.509 14.8516 152.231 14.8958 151.991 14.9844C151.751 15.0677 151.551 15.1901 151.389 15.3516C151.233 15.513 151.113 15.7109 151.03 15.9453C150.947 16.1745 150.9 16.4349 150.889 16.7266L150.444 16.6719C150.444 16.1354 150.499 15.638 150.608 15.1797C150.718 14.7214 150.876 14.3203 151.085 13.9766C151.293 13.6328 151.553 13.3672 151.866 13.1797C152.184 12.987 152.548 12.8906 152.96 12.8906C153.074 12.8906 153.197 12.901 153.327 12.9219C153.462 12.9375 153.569 12.9609 153.647 12.9922ZM158.421 21.6562C157.78 21.6562 157.205 21.5521 156.694 21.3438C156.184 21.1354 155.749 20.8464 155.389 20.4766C155.035 20.1016 154.762 19.6667 154.569 19.1719C154.382 18.6719 154.288 18.1354 154.288 17.5625V17.25C154.288 16.599 154.382 16.0078 154.569 15.4766C154.757 14.9401 155.022 14.4792 155.366 14.0938C155.71 13.7083 156.121 13.4115 156.6 13.2031C157.08 12.9948 157.608 12.8906 158.186 12.8906C158.785 12.8906 159.314 12.9922 159.772 13.1953C160.231 13.3932 160.613 13.6745 160.921 14.0391C161.228 14.4036 161.46 14.8411 161.616 15.3516C161.772 15.8568 161.85 16.4167 161.85 17.0312V17.8984H155.225V16.4766H159.819V16.3203C159.809 15.9922 159.746 15.6927 159.632 15.4219C159.517 15.1458 159.34 14.9271 159.1 14.7656C158.861 14.599 158.551 14.5156 158.171 14.5156C157.863 14.5156 157.595 14.5833 157.366 14.7188C157.142 14.849 156.955 15.0365 156.803 15.2812C156.658 15.5208 156.548 15.8073 156.475 16.1406C156.402 16.474 156.366 16.8438 156.366 17.25V17.5625C156.366 17.9167 156.413 18.2448 156.507 18.5469C156.606 18.849 156.749 19.112 156.936 19.3359C157.129 19.5547 157.358 19.7266 157.624 19.8516C157.895 19.9714 158.202 20.0312 158.546 20.0312C158.978 20.0312 159.369 19.9479 159.718 19.7812C160.072 19.6094 160.379 19.3568 160.639 19.0234L161.678 20.1016C161.501 20.362 161.262 20.612 160.96 20.8516C160.663 21.0911 160.303 21.2865 159.882 21.4375C159.46 21.5833 158.973 21.6562 158.421 21.6562ZM168.303 19.7031V9.5H170.382V21.5H168.507L168.303 19.7031ZM162.874 17.375V17.2109C162.874 16.5651 162.947 15.9792 163.093 15.4531C163.244 14.9219 163.462 14.4661 163.749 14.0859C164.035 13.7057 164.382 13.4115 164.788 13.2031C165.199 12.9948 165.665 12.8906 166.186 12.8906C166.691 12.8906 167.132 12.9922 167.507 13.1953C167.887 13.3984 168.21 13.6875 168.475 14.0625C168.746 14.4375 168.962 14.8828 169.124 15.3984C169.285 15.9089 169.402 16.4714 169.475 17.0859V17.5312C169.402 18.1302 169.285 18.6797 169.124 19.1797C168.962 19.6797 168.746 20.1172 168.475 20.4922C168.21 20.862 167.887 21.1484 167.507 21.3516C167.126 21.5547 166.681 21.6562 166.171 21.6562C165.655 21.6562 165.191 21.5495 164.78 21.3359C164.374 21.1224 164.027 20.8229 163.741 20.4375C163.46 20.0521 163.244 19.599 163.093 19.0781C162.947 18.5573 162.874 17.9896 162.874 17.375ZM164.944 17.2109V17.375C164.944 17.7396 164.975 18.0807 165.038 18.3984C165.1 18.7161 165.202 18.9974 165.343 19.2422C165.483 19.4818 165.663 19.6693 165.882 19.8047C166.106 19.9401 166.376 20.0078 166.694 20.0078C167.1 20.0078 167.434 19.9193 167.694 19.7422C167.96 19.5599 168.165 19.3125 168.311 19C168.457 18.6823 168.551 18.3255 168.593 17.9297V16.7031C168.572 16.3906 168.517 16.1016 168.428 15.8359C168.345 15.5703 168.225 15.3411 168.069 15.1484C167.918 14.9557 167.731 14.8047 167.507 14.6953C167.283 14.5859 167.017 14.5312 166.71 14.5312C166.392 14.5312 166.121 14.6016 165.897 14.7422C165.673 14.8776 165.491 15.0677 165.35 15.3125C165.21 15.5573 165.106 15.8411 165.038 16.1641C164.975 16.487 164.944 16.8359 164.944 17.2109ZM178.421 13.0469V21.5H176.35V13.0469H178.421ZM176.21 10.8359C176.21 10.5286 176.314 10.2734 176.522 10.0703C176.736 9.86719 177.022 9.76562 177.382 9.76562C177.741 9.76562 178.025 9.86719 178.233 10.0703C178.447 10.2734 178.553 10.5286 178.553 10.8359C178.553 11.138 178.447 11.3906 178.233 11.5938C178.025 11.7969 177.741 11.8984 177.382 11.8984C177.022 11.8984 176.736 11.7969 176.522 11.5938C176.314 11.3906 176.21 11.138 176.21 10.8359ZM182.413 14.8516V21.5H180.35V13.0469H182.288L182.413 14.8516ZM182.085 16.9688H181.475C181.481 16.3542 181.564 15.7969 181.725 15.2969C181.887 14.7969 182.113 14.3672 182.405 14.0078C182.702 13.6484 183.053 13.3724 183.46 13.1797C183.866 12.987 184.319 12.8906 184.819 12.8906C185.225 12.8906 185.593 12.9479 185.921 13.0625C186.249 13.1771 186.53 13.3594 186.764 13.6094C187.004 13.8594 187.186 14.1875 187.311 14.5938C187.441 14.9948 187.507 15.4896 187.507 16.0781V21.5H185.428V16.0625C185.428 15.6771 185.371 15.3724 185.257 15.1484C185.147 14.9245 184.986 14.7656 184.772 14.6719C184.564 14.5781 184.306 14.5312 183.999 14.5312C183.681 14.5312 183.402 14.5964 183.163 14.7266C182.928 14.8516 182.731 15.026 182.569 15.25C182.413 15.474 182.293 15.7318 182.21 16.0234C182.126 16.3151 182.085 16.6302 182.085 16.9688ZM189.374 20.4922C189.374 20.1797 189.481 19.9167 189.694 19.7031C189.908 19.4896 190.197 19.3828 190.561 19.3828C190.926 19.3828 191.215 19.4896 191.428 19.7031C191.642 19.9167 191.749 20.1797 191.749 20.4922C191.749 20.7995 191.642 21.0599 191.428 21.2734C191.215 21.4818 190.926 21.5859 190.561 21.5859C190.197 21.5859 189.908 21.4818 189.694 21.2734C189.481 21.0599 189.374 20.7995 189.374 20.4922ZM189.382 13.9375C189.382 13.625 189.488 13.362 189.702 13.1484C189.915 12.9349 190.205 12.8281 190.569 12.8281C190.934 12.8281 191.223 12.9349 191.436 13.1484C191.65 13.362 191.757 13.625 191.757 13.9375C191.757 14.2448 191.65 14.5052 191.436 14.7188C191.223 14.9271 190.934 15.0312 190.569 15.0312C190.205 15.0312 189.915 14.9271 189.702 14.7188C189.488 14.5052 189.382 14.2448 189.382 13.9375Z" fill="white"/>
<g clip-path="url(#clip0_953_18763)">
<path fill-rule="evenodd" clip-rule="evenodd" d="M248.8 5.68523C247.773 1.57017 247.452 1.40773 245.141 1.29944V0.595547H255.477V1.29944C252.652 1.51602 252.588 1.51602 253.615 6.33497L257.017 21.5499L261.062 5.19792C261.896 1.84089 261.575 1.51602 258.943 1.35358L258.109 1.29944V0.595547H265.491V1.29944C263.244 1.46188 263.244 1.94918 262.346 5.52279L255.733 31.9458H255.091L249.442 8.28421L243.472 31.9458H242.83L236.09 4.2233C235.512 1.78675 235.384 1.40773 232.944 1.29944V0.595547H243.023V1.29944C240.455 1.51602 240.391 1.7326 241.418 6.33497L244.884 21.4416L248.8 5.68523ZM275.698 31.7834C272.039 31.7834 269.856 28.9137 269.022 28.9137C268.123 28.9137 267.096 30.538 266.775 31.2419H266.005V21.0626H266.775C269.022 26.6395 272.617 31.0253 275.57 31.0253C277.303 31.0253 278.394 29.6717 278.394 27.6683C278.394 20.3045 266.197 15.5397 266.197 6.49741C266.197 2.81551 269.279 -0.0541992 272.617 -0.0541992C275.634 -0.0541992 277.303 2.00333 278.266 2.00333C278.78 2.00333 279.165 1.67846 279.807 0.378965H280.384V9.47541H279.614C278.202 5.08962 275.313 0.649693 272.488 0.649693C270.755 0.649693 269.471 2.00333 269.471 4.00671C269.471 11.0998 281.668 15.5939 281.668 24.961C281.733 28.8595 278.908 31.7834 275.698 31.7834ZM288.345 31.7834C284.621 31.7834 283.145 29.8341 283.145 27.939C283.145 26.0439 284.493 24.0947 286.547 24.0947C288.73 24.0947 289.629 25.9356 288.601 27.2351C287.767 28.3722 285.52 28.4805 285.52 29.3468C285.52 30.7005 286.868 31.0253 287.96 31.0253C291.169 31.0253 290.977 29.3468 290.977 23.6074V3.30282C290.977 1.67846 290.527 1.29944 288.473 1.29944H287.703V0.595547H298.423V1.29944H297.525C296.433 1.29944 295.984 1.67846 295.984 3.35697V23.2284C295.984 28.8054 291.233 31.7834 288.345 31.7834Z" fill="white"/>
</g>
<path d="M338.533 2H351.742C354.258 2 356.144 2.5305 357.542 3.41466C359.08 4.47566 359.918 6.00822 359.918 7.89444C359.918 10.0754 358.87 11.4311 356.773 12.2563V12.3742C359.569 13.1405 361.176 15.2625 361.176 17.7971C361.176 20.2138 360.058 22.1 358.241 23.2789C356.704 24.222 354.747 24.6346 352.091 24.6346H338.533V2ZM350.414 10.8417C351.812 10.8417 352.86 10.1933 352.86 8.83755C352.86 7.54077 351.812 6.89238 350.344 6.89238H345.801V10.7827H350.414V10.8417ZM351.043 19.6244C352.65 19.6244 353.838 18.7991 353.838 17.3255C353.838 15.734 352.58 15.0267 351.043 15.0267H345.871V19.6833H351.043V19.6244Z" fill="white"/>
<path d="M362.365 2H369.283V24.6936H362.365V2Z" fill="white"/>
<path d="M370.68 16.6185C370.68 11.4903 374.593 8.07153 380.673 8.07153C386.753 8.07153 390.597 11.5493 390.597 16.6185C390.597 21.7466 386.753 25.1654 380.673 25.1654C374.593 25.1654 370.68 21.7466 370.68 16.6185ZM383.679 16.6185C383.679 13.7891 382.63 12.0208 380.534 12.0208C378.437 12.0208 377.459 13.7891 377.459 16.6185C377.459 19.4478 378.437 21.2751 380.534 21.2751C382.63 21.2161 383.679 19.4478 383.679 16.6185Z" fill="white"/>
<path d="M391.366 16.6185C391.366 11.4903 395.28 8.07153 401.36 8.07153C407.44 8.07153 411.214 11.4903 411.214 16.6185C411.214 21.7466 407.37 25.1654 401.29 25.1654C395.28 25.1654 391.366 21.7466 391.366 16.6185ZM404.365 16.6185C404.365 13.7891 403.317 12.0208 401.22 12.0208C399.124 12.0208 398.145 13.7891 398.145 16.6185C398.145 19.4478 399.124 21.2751 401.22 21.2751C403.317 21.2161 404.365 19.4478 404.365 16.6185Z" fill="white"/>
<path d="M412.611 8.48407H419.041V10.9008H419.181C420.439 9.01457 422.186 8.01251 424.981 8.01251C427.427 8.01251 429.244 9.01457 430.153 10.7829H430.292C431.83 8.6609 433.856 8.01251 436.233 8.01251C440.705 8.01251 442.592 10.7829 442.592 14.4964V24.6348H435.883V15.4984C435.883 13.848 435.254 12.787 433.577 12.787C431.9 12.787 431.061 14.0838 431.061 15.8521V24.6348H424.352V15.4984C424.352 13.848 423.723 12.787 422.046 12.787C420.369 12.787 419.53 14.0838 419.53 15.8521V24.6348H412.611V8.48407Z" fill="white"/>
<path d="M451.048 22.5126H450.978V24.6346H444.549V2H451.258V10.1343H451.398C452.656 8.71966 454.403 7.95338 456.849 7.95338C461.671 7.95338 464.466 11.6079 464.466 16.5003C464.466 21.9821 461.461 25.1651 456.429 25.1651C454.333 25.1651 452.166 24.3399 451.048 22.5126ZM457.548 16.4414C457.548 13.8478 456.429 12.1384 454.403 12.1384C452.306 12.1384 451.048 13.8478 451.048 16.4414C451.048 19.0349 452.376 20.7443 454.403 20.7443C456.429 20.7443 457.548 19.0939 457.548 16.4414Z" fill="white"/>
<path d="M465.235 16.5595C465.235 11.4903 469.218 8.01257 474.949 8.01257C477.814 8.01257 479.98 8.77885 481.658 10.1346C483.894 11.9618 484.872 14.7912 484.802 18.0921H471.944C472.223 20.0962 473.341 21.1572 475.368 21.1572C476.556 21.1572 477.604 20.6856 478.024 19.6246H484.523C483.405 23.3381 479.98 25.1654 475.158 25.1654C469.218 25.1064 465.235 21.6877 465.235 16.5595ZM471.944 14.8501H478.093C477.954 12.905 476.696 11.9029 475.088 11.9029C473.202 11.844 472.153 12.9639 471.944 14.8501Z" fill="white"/>
<path d="M492.42 11.2545H492.56C493.957 9.01466 495.774 8.13049 498.081 8.13049C498.64 8.13049 498.989 8.18944 499.199 8.30733V13.2587H499.059C495.076 12.6692 492.769 14.2607 492.769 17.9153V24.6939H485.99V8.48416H492.42V11.2545Z" fill="white"/>
<path d="M499.899 24.6937H506.398C506.677 25.4011 507.516 26.0495 509.123 26.0495C511.29 26.0495 512.059 24.9295 512.059 23.2201V22.0413H511.919C510.871 23.1023 509.403 23.8685 507.306 23.8685C503.183 23.8685 499.549 21.275 499.549 16.2058C499.549 11.5492 502.484 7.95355 506.957 7.95355C509.543 7.95355 511.08 8.83772 512.128 10.1934H512.268V8.42511H518.698V22.4539C518.698 25.0474 517.649 27.0515 516.042 28.2304C514.365 29.4682 511.989 29.9987 509.263 29.9987C504.092 30.0577 500.528 28.2894 499.899 24.6937ZM512.338 15.97C512.338 13.9659 511.22 12.3154 509.263 12.3154C507.376 12.3154 506.188 13.7301 506.188 15.97C506.188 18.1509 507.376 19.6835 509.263 19.6835C511.15 19.6835 512.338 18.092 512.338 15.97Z" fill="white"/>
<path fill-rule="evenodd" clip-rule="evenodd" d="M664.722 9.56834C664.722 13.3524 664.273 25.0824 664.273 25.0824C664.273 27.3524 665.17 28.361 667.712 28.361V29.3696H657.694V28.361C660.235 28.361 661.581 27.3524 661.581 25.0824L662.478 5.91067C661.731 4.39663 660.983 3.89231 659.039 3.76704V2.88474H666.665L674.74 20.7951L682.965 2.88474H689.843V3.76704C687.9 3.76704 686.854 4.52405 686.854 6.28971L687.751 24.8307C687.751 27.6061 688.349 28.3621 691.042 28.3621V29.3707H679.528V28.3621C681.769 28.3621 682.818 27.7314 682.667 24.8307C682.667 24.8307 682.218 11.8394 682.069 9.56941L676.538 22.4344C675.707 24.2468 675.008 26.1001 674.443 27.9841L672.651 28.1104C672.201 26.7228 671.005 24.2011 671.005 24.2011C671.005 24.2011 666.365 13.226 664.722 9.56834ZM655.301 29.496C654.703 29.3696 654.105 29.3696 653.506 29.3696C652.31 29.3696 650.215 29.874 647.674 29.874C637.953 29.874 630.775 24.955 630.775 15.874C630.775 8.18065 637.505 2.253 647.822 2.253C650.214 2.253 652.906 2.63204 655.15 3.38799C655.598 3.00894 655.748 2.75732 656.196 2.37934H657.093C656.943 3.76703 656.345 8.307 656.345 8.307H655.448C654.85 5.65904 653.205 3.89231 647.971 3.89231C641.691 3.89231 636.008 8.0543 636.008 15.7487C636.008 24.4517 641.84 28.2346 648.27 28.2346C652.458 28.2346 655 26.2174 656.645 23.6947L657.692 24.0737L655.301 29.496ZM627.037 7.80267H625.991C625.841 5.40635 624.943 4.64933 622.7 4.64933H618.364V24.4517C618.364 27.7303 619.111 28.361 621.654 28.361V29.3696H610.438V28.361C612.981 28.361 613.729 27.7303 613.729 24.3243V4.64933H609.392C606.551 4.64933 606.102 5.28 605.354 7.80267H604.308L605.056 2.12665L605.803 2.253C606.102 2.88367 606.701 2.88367 608.495 2.88367H623C625.692 2.88367 626.29 2.88367 626.888 2.12665H627.786L627.037 7.80267Z" fill="white"/>
<path fill-rule="evenodd" clip-rule="evenodd" d="M595.336 30.0001C593.242 30.0001 591.597 29.7484 590.401 29.3694C589.205 29.1178 588.308 28.7387 587.86 28.4871C587.262 28.9914 586.812 29.6221 586.812 29.6221L585.915 29.3705L586.663 23.4428L587.71 23.5692C588.308 26.3435 590.551 28.3618 595.187 28.3618C598.776 28.3618 601.169 25.8402 601.169 23.0648C601.169 20.7949 600.122 19.6588 596.533 17.3888C595.337 16.7581 594.29 16.2538 593.392 15.6232C590.103 13.8586 588.008 11.8402 588.008 8.56052C588.008 4.7765 591.747 2.25383 596.681 2.25383C599.522 2.25383 601.317 3.01085 601.915 3.26247L602.961 2.25383L603.709 2.38017L602.961 7.8035L601.915 7.67716C601.915 5.15555 600.12 4.01949 597.129 4.01949C594.288 4.01949 592.195 5.28083 592.195 7.67716C592.195 9.82186 594.139 11.2085 596.382 12.4709C597.578 13.1016 598.475 13.6059 599.371 14.1102C604.605 17.2625 605.801 19.2808 605.801 22.3078C605.804 26.7214 601.766 30.0001 595.336 30.0001ZM578.289 7.80243H577.093C577.093 5.53138 575.897 4.64908 573.504 4.64908H566.775V14.6134H571.111C573.355 14.6134 573.804 13.6048 574.102 11.9644H575.148V19.0281H574.102C573.804 17.1361 573.355 16.3791 570.962 16.3791H566.775V24.8305C566.775 27.9828 567.672 28.3618 570.065 28.3618V29.3705H558.7V28.3618C561.541 28.3618 561.989 27.7311 561.989 24.8305V6.28839C561.989 4.52273 561.091 3.76572 558.7 3.76572V2.88342H574.251C576.942 2.88342 577.54 2.75708 577.989 2.00006H579.037L578.289 7.80243ZM739.641 9.3154V24.4504C739.641 27.729 740.536 28.3597 742.929 28.3597V29.3683H725.285V28.3597C726.632 28.3597 727.827 27.9806 727.827 27.2247C727.827 26.7193 727.678 25.837 727.377 24.9536L726.03 21.296H716.163C716.012 21.8014 714.219 25.9623 714.219 27.0983C714.219 28.107 715.566 28.3597 716.461 28.3597V29.3683H708.236V28.3597C709.732 28.3597 710.929 28.2333 711.975 25.5854L719.602 5.02598C719.152 4.14369 718.556 3.89099 717.51 3.76464V2.88235H724.239L732.312 24.4504C733.061 26.7204 733.807 27.8564 735.004 28.3597C736.799 27.8554 737.249 27.351 737.249 24.4504V6.28839C735.902 4.77436 735.751 3.76572 733.209 3.76572V2.88342H740.836L753.398 20.9191V7.17176C753.398 4.39639 752.652 3.76572 750.108 3.76572V2.88342H766.856V3.76572C765.81 3.76572 764.912 4.14476 764.912 5.02705C764.912 5.65772 765.212 6.28839 765.51 7.04541L770.296 15.7484L774.932 7.29811C775.679 6.16312 775.83 5.53245 775.83 4.90178C775.83 4.14476 775.229 3.76572 773.886 3.76572V2.88342H781.81V3.76572C779.867 3.76572 778.668 5.27975 777.773 7.04434L771.642 17.6394V24.5767C771.642 27.6048 772.539 28.3607 774.932 28.3607V29.3694H763.567V28.3607C765.96 28.3607 766.857 27.6048 766.857 24.5767V18.6491L760.276 6.91907C759.081 4.64909 758.632 4.14477 757.883 3.76572C756.388 4.27004 755.94 5.15341 755.94 7.17176V26.5951C755.94 26.5951 756.091 28.1091 756.239 29.8737L754.296 30.0001L739.641 9.3154ZM720.949 8.05406L716.761 19.5324H725.434L720.949 8.05406Z" fill="white"/>
<path fill-rule="evenodd" clip-rule="evenodd" d="M702.403 19.532H700.161V24.9543C700.161 27.7297 701.056 28.3603 703.6 28.3603V29.369H692.086V28.3603C694.479 28.3603 695.377 27.6044 695.377 24.829V7.04501C695.377 4.27071 694.479 3.76639 692.086 3.76639V2.88409H700.759C709.133 2.88409 714.066 5.02773 714.066 10.829C714.067 16.883 708.087 19.532 702.403 19.532ZM700.908 4.64869H700.161V17.639H701.506C706.443 17.639 708.984 15.747 708.984 10.9543C708.984 6.16165 706.74 4.64869 700.908 4.64869ZM650.215 24.3236C644.532 24.3236 640.644 20.9176 640.644 15.9997C640.644 11.3333 644.682 7.67568 650.215 7.67568C655.599 7.67568 659.635 11.207 659.635 15.9997C659.637 20.666 655.449 24.3236 650.215 24.3236ZM650.215 9.18864C646.327 9.18864 644.981 12.342 644.981 15.9997C644.981 19.4057 646.178 22.8107 650.215 22.8107C654.103 22.8107 655.299 19.4046 655.299 15.8733C655.3 12.4683 653.805 9.18864 650.215 9.18864ZM584.42 22.8107V21.9273C585.915 21.9273 586.215 21.5493 586.215 21.1714C586.215 20.666 586.065 20.288 585.915 19.91C585.915 19.91 585.616 18.9003 585.317 18.1444H579.485L578.887 19.7837C578.739 20.1627 578.589 20.5407 578.589 21.045C578.589 21.5504 579.187 21.9273 580.084 21.9273V22.8107H574.252V21.9273C575.748 21.9273 576.346 21.5493 576.944 20.1627L581.43 8.81067C581.28 8.30528 580.831 7.9273 579.935 7.9273V7.04394H584.718C586.35 11.0841 587.995 15.1204 589.653 19.153C590.4 21.2966 591.148 21.9273 592.344 21.9273V22.8107H584.42ZM582.325 10.5763L580.082 16.7567H584.718L582.325 10.5763Z" fill="white"/>
<path d="M856.752 2C854.39 2 852.163 3.12479 851.356 4.92059C851.035 5.63491 850.902 6.34905 850.969 7.11058H853.42C854.434 7.11058 855.05 7.55312 855.05 7.85208C852.483 8.69852 851.455 9.84508 851.606 10.7468L853.879 24.3831L861.902 8.79757C862.442 7.7527 862.553 6.87494 862.166 5.59859C861.801 4.39619 860.931 3.21818 859.007 2.43577C858.333 2.17784 857.484 2 856.752 2Z" fill="white"/>
<path d="M843.135 2C842.403 2 841.554 2.14116 840.881 2.39909C838.956 3.1815 838.043 4.39623 837.678 5.59863C837.291 6.87499 837.541 7.97536 837.985 8.8343L846.031 24.3831L848.916 7.43826C849.06 6.59361 848.944 5.71376 848.571 4.92057C847.731 3.1355 845.647 2 843.135 2Z" fill="white"/>
<path d="M829.053 9.61023C828.426 9.92912 827.795 10.4362 827.399 10.9632C826.299 12.43 826.214 14.1171 826.63 15.2C827.072 16.352 827.941 17.1576 829.026 17.7712L845.314 26.9777L837.401 11.7832C836.994 11.0019 836.28 10.2998 835.455 9.80664C833.628 8.71553 831.013 8.6123 829.053 9.61023Z" fill="white"/>
<path d="M822.291 22.6898C821.966 23.2431 821.791 23.9665 821.81 24.59C821.864 26.3252 822.57 27.5111 823.967 28.4394C824.821 29.0074 826.348 29.4816 827.655 29.4817L846.637 29.4828L830.84 20.5597C830.299 20.2542 829.134 19.7201 827.599 19.7106C826.309 19.7027 825.157 20.0676 824.24 20.6652C823.052 21.4392 822.64 22.0932 822.291 22.6898Z" fill="white"/>
<path d="M870.827 9.61023C871.454 9.92912 872.085 10.4362 872.48 10.9632C873.581 12.43 873.665 14.1171 873.25 15.2C872.808 16.352 871.939 17.1576 870.853 17.7712L854.566 26.9777L862.479 11.7832C862.886 11.0019 863.599 10.2998 864.425 9.80664C866.251 8.71553 868.866 8.6123 870.827 9.61023Z" fill="white"/>
<path d="M877.605 22.6898C877.93 23.2431 878.105 23.9665 878.086 24.59C878.032 26.3252 877.325 27.5111 875.929 28.4395C875.075 29.0074 873.548 29.4817 872.241 29.4817L853.215 29.4828L869.034 20.5597C869.575 20.2545 870.753 19.7106 872.367 19.7106C873.657 19.7106 874.787 20.0676 875.705 20.6652C876.893 21.4392 877.256 22.0932 877.605 22.6898Z" fill="white"/>
<path d="M969.873 2C960.517 2 952.639 8.24847 952.639 15.8624C952.639 18.9027 953.638 21.9919 956.768 25.0199C959.58 27.7414 963.889 29.8397 969.873 30C977.391 30 980.915 27.4928 984.474 24.9695L979.699 20.2341C978.412 21.1253 977.392 21.9578 975.975 22.6184C974.293 23.4027 972.745 23.7678 969.873 23.7678C963.855 23.7678 959.944 19.8177 959.944 15.8624C959.944 11.8604 964.358 8.19856 969.873 8.19856C973.478 8.19879 975.958 9.38621 978.071 11.329L983.312 6.97383C979.644 3.62607 975.231 2 969.873 2ZM883.776 2.69366V29.2941H890.666V11.9981L905.916 29.2941H913.253V2.69366H906.4V19.952L891.155 2.69366H883.776ZM919.506 2.69366V29.2941H938.15C940.372 29.2938 943.349 28.7799 945.2 27.6649C946.318 26.9911 947.231 26.248 947.896 25.0159C948.638 23.6438 948.916 22.182 948.916 21.0814C948.916 18.3906 947.691 16.5704 944.22 14.9705C945.036 14.5703 945.923 14.0646 946.629 13.3208C947.38 12.53 947.815 11.6432 947.815 10.2442C947.815 5.27525 942.802 2.69366 938.15 2.69366H919.506ZM926.141 7.68828H936.594C939.842 7.68828 940.7 8.8217 940.7 10.2444C940.7 11.0641 940.351 11.6209 939.656 12.0843C939.202 12.3865 938.254 12.6946 937.539 12.6946H937.341L926.141 12.6985V7.68828ZM926.141 17.6932H931.628H936.365H936.464H936.563C938.271 17.6932 939.546 17.9089 940.476 18.4745C941.365 19.0152 941.828 19.8559 941.828 20.9336C941.828 21.9111 941.386 22.7015 940.553 23.2476C939.587 23.8814 938.499 24.0953 936.665 24.0953H926.141V17.6932Z" fill="white"/>
<path d="M1170.34 29.3072H1164.27C1159.28 24.5023 1154.26 19.6565 1149.24 14.8108C1149.18 14.8224 1149.11 14.84 1149.04 14.8516V29.3072H1141.26V2.63215C1143.16 2.63215 1145.04 2.61463 1146.91 2.6555C1147.16 2.6555 1147.46 2.92406 1147.66 3.12256C1151.83 7.21518 1155.98 11.3136 1160.14 15.4063C1160.87 16.1302 1161.61 16.8483 1162.35 17.5723C1162.42 17.5606 1162.48 17.5489 1162.55 17.5372V2.66134H1170.34V29.3072Z" fill="white"/>
<path d="M1059.43 2.6556C1059.7 2.64392 1059.94 2.62641 1060.19 2.62641C1064.56 2.62641 1068.93 2.61473 1073.3 2.62641C1075.62 2.63808 1077.88 2.92999 1080.01 3.74735C1083.87 5.23611 1086.04 7.78159 1086.29 11.3604C1086.54 14.8868 1084.96 17.73 1081.42 19.7267C1081.08 19.9193 1080.72 20.0945 1080.26 20.3338C1082.95 23.3172 1085.6 26.2714 1088.35 29.3073H1078.93C1076.72 26.7851 1074.46 24.2221 1072.19 21.6358H1067.22V29.2956H1059.44V2.6556H1059.43ZM1067.25 8.37709V15.6165C1069.59 15.6165 1071.88 15.6691 1074.16 15.5932C1075.26 15.5582 1076.29 15.1553 1077.16 14.5248C1078.43 13.5907 1078.9 12.2012 1078.31 10.9226C1077.69 9.57393 1076.4 8.78577 1074.81 8.64565C1072.32 8.42964 1069.81 8.45883 1067.24 8.37709H1067.25Z" fill="white"/>
<path d="M1184.68 20.5791H1192.35C1193.63 23.3756 1196.32 24.6834 1199.99 24.2631C1200.77 24.1755 1201.57 24.0003 1202.29 23.7318C1203.19 23.3932 1203.66 22.7276 1203.64 21.8752C1203.63 21.0695 1203.13 20.4448 1202.29 20.1763C1201.08 19.7968 1199.82 19.5341 1198.56 19.2655C1196.69 18.8685 1194.77 18.5883 1192.94 18.0979C1191.66 17.7592 1190.41 17.2513 1189.29 16.6383C1187.07 15.4239 1186.04 13.5849 1185.89 11.3839C1185.58 6.79499 1188.75 3.91672 1192.94 2.77243C1197.25 1.5931 1201.56 1.75657 1205.73 3.31538C1209.3 4.65235 1211.29 7.04603 1211.89 10.2804C1211.91 10.3738 1211.92 10.4673 1211.92 10.5607C1211.92 10.6307 1211.89 10.6949 1211.87 10.8117H1204.2C1204.16 10.7708 1204.1 10.7358 1204.09 10.6949C1203.33 7.87506 1200.63 7.26789 1197.92 7.54812C1197.22 7.61818 1196.51 7.81668 1195.88 8.08524C1194.81 8.52895 1194.33 9.33463 1194.38 10.3271C1194.42 11.3021 1195.09 11.9677 1196.14 12.2479C1197.61 12.6449 1199.12 12.9427 1200.62 13.2521C1202.82 13.7016 1205.05 14.0519 1207.12 14.8751C1209.58 15.856 1211.33 17.333 1211.87 19.6684C1212.65 23.0312 1210.97 26.2948 1207.5 28.1046C1205.28 29.2606 1202.81 29.7393 1200.24 29.862C1196.76 30.0313 1193.4 29.6284 1190.31 28.1572C1186.98 26.575 1184.76 23.5741 1184.7 20.5674L1184.68 20.5791Z" fill="white"/>
<path d="M1054.43 18.3547C1053.6 23.0428 1050.96 26.6683 1045.77 28.6066C1040.11 30.7143 1034.43 30.4574 1029.18 27.655C1023.58 24.6658 1021.36 20.1295 1021.88 14.6474C1022.31 10.0702 1024.87 6.49715 1029.56 4.1093C1035.62 1.01502 1043.98 1.48208 1049.17 5.18354C1052.26 7.37873 1053.87 10.2512 1054.41 13.6315H1046.45C1046.31 13.287 1046.18 12.9368 1046.03 12.5923C1044.71 9.53305 1041.64 8.08516 1037.91 8.26614C1032.28 8.54054 1029.05 12.6507 1029.79 17.1928C1030.29 20.2404 1032.17 22.4181 1035.73 23.4048C1037.49 23.8893 1039.28 23.8952 1041.05 23.4631C1043.51 22.856 1045.11 21.4606 1046.01 19.4639C1046.17 19.1195 1046.29 18.7575 1046.44 18.3663H1054.43V18.3547Z" fill="white"/>
<path d="M1124.2 29.3305H1115.94C1115.24 27.8242 1114.52 26.3179 1113.8 24.7766H1100.29C1099.61 26.2712 1098.92 27.7658 1098.22 29.3013H1089.91C1094.4 20.3454 1098.86 11.4245 1103.32 2.50952H1110.82C1115.27 11.4187 1119.72 20.3279 1124.21 29.3305H1124.2ZM1107.13 10.3036C1107.08 10.3036 1107.01 10.3036 1106.96 10.3036C1105.62 13.2169 1104.27 16.136 1102.91 19.0902H1111.19C1109.81 16.1068 1108.47 13.2052 1107.13 10.3094V10.3036Z" fill="white"/>
<path d="M1135.46 29.3189H1127.81V2.67896H1135.46V29.3189Z" fill="white"/>
<path d="M1178.64 12.674H1174.53C1175.33 11.2144 1176.09 9.83078 1176.87 8.42376C1176.69 8.32451 1176.55 8.24277 1176.41 8.17855C1175.04 7.51299 1174.3 6.52633 1174.5 5.17769C1174.72 3.71229 1175.76 2.76065 1177.43 2.36365C1179.11 1.95497 1180.64 2.28775 1181.81 3.39118C1182.98 4.48877 1183.13 5.8199 1182.42 7.11599C1181.74 8.35954 1180.86 9.52135 1180.05 10.7124C1179.61 11.3604 1179.14 11.9909 1178.66 12.674H1178.64Z" fill="white"/>
<defs>
<clipPath id="clip0_953_18763">
<rect width="65.5903" height="32" fill="white" transform="translate(232.944)"/>
</clipPath>
</defs>
</svg>
