
<svg width="140" height="32" viewBox="0 0 140 32" fill="none" xmlns="http://www.w3.org/2000/svg">
<path d="M19.543 21.2199H6.10999L2.52701 30.8199H0L11.626 0.837891H14.238L25.821 30.8209H23.169L19.543 21.2199ZM6.91 18.9879H18.701L12.801 3.44788L6.91 18.9879Z" fill="white"/>
<path d="M28.093 30.8244V15.5744C28.093 13.0191 28.7873 11.2014 30.176 10.1214C31.8851 8.94563 33.9383 8.37504 36.009 8.5004C37.5325 8.43675 39.049 8.73992 40.431 9.3844C41.4615 9.88087 42.2931 10.7121 42.79 11.7424C43.3204 10.7077 44.1794 9.87829 45.232 9.3844C46.5879 8.75117 48.0744 8.44822 49.57 8.5004C50.6889 8.48803 51.8054 8.6082 52.896 8.8584C53.8021 9.06068 54.6512 9.46358 55.381 10.0374C56.0767 10.615 56.613 11.361 56.939 12.2044C57.3339 13.2824 57.5195 14.4258 57.486 15.5734V30.8244H55.044V15.7884C55.044 13.8798 54.6157 12.5464 53.759 11.7884C52.5426 10.9219 51.0566 10.5186 49.569 10.6514C48.0883 10.5295 46.6102 10.9154 45.378 11.7454C44.494 12.4748 44.0517 13.7664 44.051 15.6204V30.8204H41.569V15.7884C41.569 13.8798 41.1266 12.5464 40.242 11.7884C39.0072 10.9263 37.5095 10.524 36.009 10.6514C33.959 10.6514 32.534 11.0654 31.734 11.8934C30.8403 13.0014 30.4102 14.4123 30.534 15.8304V30.8234L28.093 30.8244Z" fill="white"/>
<path d="M74.585 31.5797C72.357 31.6257 70.1329 31.3708 67.973 30.8217C66.3427 30.409 64.8432 29.5906 63.614 28.4427C62.4638 27.2906 61.6425 25.8519 61.235 24.2758C60.7195 22.2621 60.4786 20.1879 60.519 18.1097V13.4777C60.4818 11.427 60.7226 9.38075 61.235 7.39474C61.6441 5.81743 62.4568 4.37377 63.593 3.20574C64.8093 2.0423 66.3024 1.20864 67.931 0.783747C70.1025 0.218313 72.3417 -0.0438632 74.585 0.00472453C76.8131 -0.0416008 79.0372 0.213399 81.197 0.762751C82.8265 1.17348 84.3214 2.00049 85.535 3.16274C86.6734 4.33312 87.4927 5.77567 87.915 7.35275C88.4434 9.35105 88.6915 11.4131 88.652 13.4797V18.1017C88.6892 20.1524 88.4484 22.1987 87.9361 24.1847C87.527 25.7629 86.714 27.2073 85.577 28.3757C84.3627 29.539 82.8711 30.3727 81.244 30.7977C79.0712 31.3648 76.8302 31.628 74.585 31.5797ZM74.585 24.7157C75.5189 24.7358 76.4519 24.6442 77.364 24.4427C78.0234 24.3022 78.6209 23.9555 79.07 23.4528C79.5246 22.8651 79.8151 22.1674 79.912 21.4307C80.0843 20.3167 80.1619 19.1899 80.144 18.0627V13.5147C80.1626 12.3942 80.085 11.274 79.912 10.1667C79.809 9.43211 79.5191 8.73623 79.07 8.14575C78.6261 7.63258 78.0273 7.27771 77.364 7.13473C75.521 6.76909 73.6241 6.76909 71.781 7.13473C71.1207 7.28457 70.5242 7.63827 70.076 8.14575C69.613 8.73033 69.3147 9.42809 69.2121 10.1667C69.0391 11.2741 68.9614 12.3942 68.98 13.5147V18.0627C68.9614 19.183 69.039 20.3028 69.2121 21.4097C69.3143 22.1488 69.6126 22.847 70.076 23.4317C70.5225 23.9388 71.1173 24.2926 71.776 24.4427C72.6978 24.6472 73.6411 24.7388 74.585 24.7157Z" fill="white"/>
<path d="M109.494 17.734V17.934L97.3281 0.833984H90.7581V30.818H98.5491V14.018L110.593 30.818H117.293V28.544L109.494 17.734Z" fill="white"/>
<path d="M116.747 0.838867H105.156L116.747 17.7969V0.838867Z" fill="#F9892A"/>
<path d="M140 24.3389H127.728V18.8639H139.688L140 17.2099V12.3769H127.728V7.32385H139.999V0.838867H119.811V30.8229H140V24.3389Z" fill="white"/>
</svg>
