
<svg width="110" height="50" viewBox="0 0 110 28" fill="none" xmlns="http://www.w3.org/2000/svg">
<g clip-path="url(#clip0_1246_21681)">
<path d="M28.9025 10.0478H40.0385V12.0883H35.6605V23.5613H33.2515V12.0883H28.8923V10.047H28.9018L28.9025 10.0478ZM39.5631 13.776H41.6217V15.6649H41.6602C41.7285 15.3977 41.8543 15.14 42.0389 14.8917C42.4337 14.3596 42.9681 13.947 43.5828 13.6998C43.8951 13.576 44.2276 13.5113 44.5634 13.5089C44.8148 13.5089 45.0003 13.5183 45.0977 13.5285C45.1943 13.5379 45.291 13.5568 45.3978 13.5662V15.6452C45.2402 15.6176 45.0816 15.5954 44.9225 15.5784C44.7644 15.5597 44.6055 15.5503 44.4463 15.5501C44.077 15.5501 43.7282 15.6264 43.3982 15.7701C43.0682 15.9124 42.7861 16.1316 42.5441 16.4089C42.2859 16.719 42.0882 17.0748 41.9611 17.4579C41.8158 17.8774 41.7474 18.3536 41.7474 18.8981V23.5519H39.5537V13.776H39.5631ZM55.4856 23.5621H53.3304V22.1981H53.2911C53.0193 22.6946 52.6217 23.0859 52.0874 23.3814C51.5531 23.6768 51.0094 23.8292 50.4563 23.8292C49.1457 23.8292 48.1934 23.5149 47.612 22.8754C47.029 22.2366 46.7375 21.2733 46.7375 19.9855V13.7768H48.932V19.7757C48.932 20.6345 49.097 21.245 49.4372 21.5978C49.7672 21.9506 50.2425 22.1321 50.8444 22.1321C51.3103 22.1321 51.689 22.0653 51.9994 21.9215C52.3105 21.7785 52.5628 21.5978 52.7474 21.3589C52.9415 21.1303 53.0774 20.8443 53.1654 20.5198C53.2518 20.1953 53.2911 19.8425 53.2911 19.4614V13.7862H55.4856V23.5621ZM59.2233 20.4247C59.2916 21.0533 59.5336 21.4933 59.9516 21.7502C60.3783 21.9985 60.8835 22.1321 61.4759 22.1321C61.6802 22.1321 61.9128 22.1124 62.1752 22.0841C62.4368 22.0551 62.689 21.9883 62.913 21.9034C63.1455 21.817 63.3294 21.6834 63.485 21.5121C63.6311 21.3393 63.6987 21.1209 63.6893 20.8443C63.688 20.7159 63.6597 20.5893 63.6062 20.4726C63.5528 20.3559 63.4753 20.2518 63.3789 20.167C63.184 19.9863 62.942 19.8527 62.6403 19.738C62.3042 19.6216 61.9603 19.5291 61.611 19.4614C61.2229 19.3852 60.8348 19.2988 60.4372 19.2131C60.0367 19.1265 59.6411 19.0182 59.2523 18.8886C58.8877 18.7718 58.5438 18.5981 58.2333 18.374C57.9307 18.1629 57.684 17.8813 57.5143 17.5537C57.3305 17.2198 57.2425 16.8096 57.2425 16.3139C57.2425 15.7796 57.3784 15.3411 57.6408 14.9781C57.9055 14.6182 58.2472 14.3218 58.641 14.1107C59.0643 13.887 59.5192 13.7293 59.9901 13.6432C60.4851 13.5576 60.9613 13.5096 61.4075 13.5096C61.9222 13.5096 62.4172 13.567 62.8839 13.6723C63.3358 13.769 63.7664 13.9466 64.1552 14.1964C64.5339 14.4352 64.8443 14.7495 65.0973 15.1314C65.3495 15.5124 65.505 15.9799 65.5726 16.5236H63.2815C63.1746 16.009 62.9413 15.6562 62.5633 15.4841C62.1846 15.3034 61.7478 15.217 61.2622 15.217C61.1066 15.217 60.922 15.2264 60.709 15.2555C60.5039 15.2828 60.302 15.3307 60.1064 15.3985C59.9277 15.4643 59.7654 15.5684 59.631 15.7034C59.5658 15.7738 59.5151 15.8564 59.4818 15.9465C59.4485 16.0365 59.4333 16.1323 59.437 16.2282C59.437 16.4954 59.5336 16.7051 59.7183 16.867C59.9029 17.0289 60.1457 17.1624 60.4466 17.2771C60.7475 17.3824 61.0878 17.4775 61.4759 17.5537C61.864 17.6299 62.2616 17.7156 62.6702 17.802C63.0678 17.8876 63.4559 18.0024 63.8448 18.1257C64.233 18.2499 64.5724 18.4219 64.8741 18.6411C65.175 18.8604 65.4178 19.1275 65.6017 19.452C65.7863 19.7757 65.8838 20.1859 65.8838 20.6628C65.8838 21.2442 65.7478 21.7314 65.4752 22.1415C65.2041 22.5422 64.8545 22.8754 64.427 23.1236C63.9796 23.3814 63.4948 23.568 62.99 23.6768C62.4764 23.7898 61.9522 23.8472 61.4264 23.8481C60.8375 23.8547 60.2503 23.7842 59.6798 23.6383C59.1455 23.4953 58.6795 23.2855 58.2914 23.0097C57.9078 22.731 57.5924 22.3688 57.369 21.9506C57.1458 21.531 57.0288 21.025 57.0099 20.4436H59.2233V20.4247ZM66.466 13.7776H68.1262V10.839H70.3207V13.7776H72.3007V15.3883H70.3215V20.6156C70.3215 20.8435 70.3309 21.0352 70.3505 21.2065C70.3694 21.3691 70.4181 21.5121 70.4865 21.6261C70.5607 21.7458 70.6735 21.8367 70.8063 21.8838C70.9524 21.9411 71.1363 21.9702 71.3893 21.9702C71.544 21.9702 71.6996 21.9702 71.8552 21.96C72.0108 21.9506 72.1655 21.9317 72.3211 21.8932V23.5621C72.0783 23.5911 71.8355 23.61 71.6124 23.6383C71.3772 23.6656 71.1405 23.6785 70.9037 23.6768C70.3215 23.6768 69.8555 23.6194 69.5051 23.5149C69.1563 23.4096 68.8742 23.2478 68.6801 23.038C68.4758 22.8282 68.3501 22.5705 68.2723 22.2554C68.1967 21.9011 68.1546 21.5404 68.1466 21.1782V15.4064H66.4864V13.7752H66.4668L66.466 13.7776ZM73.854 13.7776H75.9323V15.1023H75.9715C76.2811 14.5303 76.7085 14.1296 77.2617 13.8821C77.8271 13.6307 78.4399 13.5037 79.0586 13.5096C79.8443 13.5096 80.524 13.6432 81.107 13.9198C81.6892 14.1869 82.1748 14.5594 82.5629 15.0355C82.951 15.5124 83.2331 16.0656 83.4272 16.6957C83.6249 17.3512 83.7232 18.0327 83.7187 18.7174C83.7187 19.375 83.6315 20.0138 83.4563 20.6251C83.2953 21.2147 83.0289 21.7703 82.6698 22.2649C82.3168 22.7416 81.8583 23.1302 81.3301 23.4002C80.7864 23.6862 80.1555 23.8292 79.4177 23.8292C79.0952 23.8289 78.7734 23.7999 78.456 23.7428C78.1394 23.6857 77.8302 23.5932 77.5343 23.467C77.2404 23.3443 76.9655 23.1803 76.718 22.9799C76.4737 22.785 76.2609 22.5536 76.087 22.2939H76.0478V27.1771H73.854V13.776V13.7776ZM81.5242 18.6789C81.5246 18.2439 81.4659 17.811 81.3498 17.3919C81.2422 16.9947 81.0644 16.6201 80.8249 16.2856C80.5976 15.9673 80.3027 15.7033 79.9614 15.5124C79.5948 15.3143 79.1838 15.2127 78.7671 15.217C77.8447 15.217 77.1454 15.5313 76.6795 16.1614C76.2135 16.7908 75.9802 17.6307 75.9802 18.6789C75.9802 19.1746 76.0391 19.6327 76.1648 20.0523C76.2905 20.4719 76.4658 20.8349 76.718 21.1397C76.9615 21.4454 77.2523 21.6834 77.5925 21.8547C77.9319 22.0362 78.3303 22.1219 78.7765 22.1219C79.2818 22.1219 79.699 22.0174 80.0486 21.817C80.3872 21.6222 80.6788 21.3553 80.9027 21.0352C81.1258 20.7107 81.2916 20.3477 81.3883 19.9384C81.4776 19.5245 81.5232 19.1023 81.5242 18.6789ZM85.3978 10.0478H87.5923V12.0891H85.3978V10.0478ZM85.3978 13.7768H87.5923V23.5621H85.3978V13.7768ZM89.5534 10.0478H91.7479V23.5621H89.5534V10.0478ZM98.476 23.8292C97.6793 23.8292 96.9705 23.6956 96.3498 23.4387C95.7547 23.1946 95.2161 22.8309 94.7674 22.3701C94.3311 21.9001 93.997 21.3447 93.786 20.739C93.5551 20.0704 93.4403 19.3673 93.4466 18.66C93.4466 17.9159 93.5629 17.23 93.786 16.5999C93.9971 15.9945 94.3312 15.4394 94.7674 14.9695C95.194 14.5114 95.7283 14.1586 96.3498 13.9009C96.9705 13.6432 97.6793 13.5096 98.476 13.5096C99.2719 13.5096 99.9806 13.6432 100.602 13.9009C101.224 14.1586 101.748 14.5216 102.185 14.9695C102.621 15.4392 102.955 15.9944 103.165 16.5999C103.388 17.2292 103.505 17.9159 103.505 18.66C103.505 19.4143 103.388 20.1096 103.165 20.739C102.955 21.3448 102.621 21.9002 102.185 22.3701C101.757 22.8282 101.224 23.181 100.602 23.4387C99.9806 23.6956 99.2719 23.8292 98.476 23.8292ZM98.476 22.1219C98.9615 22.1219 99.3882 22.0174 99.7473 21.817C100.097 21.6222 100.399 21.3516 100.631 21.025C100.864 20.7013 101.029 20.3289 101.146 19.9187C101.253 19.5086 101.311 19.089 101.311 18.66C101.311 18.2404 101.253 17.8303 101.146 17.4107C101.046 17.0127 100.871 16.6373 100.631 16.3044C100.399 15.9809 100.097 15.7138 99.7473 15.5226C99.3882 15.3223 98.9615 15.217 98.476 15.217C97.9904 15.217 97.563 15.3223 97.2039 15.5226C96.8567 15.7167 96.5555 15.9834 96.3207 16.3044C96.0842 16.6393 95.9099 17.014 95.8061 17.4107C95.6986 17.8185 95.6429 18.2383 95.6403 18.66C95.6403 19.089 95.6992 19.5086 95.8061 19.9187C95.913 20.3289 96.0874 20.7013 96.3207 21.025C96.5533 21.3495 96.8448 21.6166 97.2039 21.817C97.563 22.0268 97.9904 22.1219 98.476 22.1219ZM104.146 13.7776H105.806V10.839H108V13.7776H109.98V15.3883H108V20.6156C108 20.8435 108.01 21.0352 108.029 21.2065C108.048 21.3691 108.097 21.5121 108.165 21.6261C108.24 21.7459 108.352 21.8368 108.485 21.8838C108.631 21.9411 108.815 21.9702 109.068 21.9702C109.223 21.9702 109.379 21.9702 109.534 21.96C109.69 21.9506 109.844 21.9317 110 21.8932V23.5621C109.757 23.5911 109.514 23.61 109.291 23.6383C109.056 23.6656 108.819 23.6785 108.583 23.6768C108 23.6768 107.534 23.6194 107.184 23.5149C106.835 23.4096 106.553 23.2478 106.359 23.038C106.156 22.8282 106.029 22.5705 105.951 22.2554C105.876 21.9011 105.834 21.5404 105.826 21.1782V15.4064H104.165V13.7752H104.146V13.7776Z" fill="#312E2E"/>
<path d="M26.3395 10.047H16.2816L13.1749 0.642822L10.0571 10.0478L0 10.0376L8.1455 15.855L5.02936 25.249L13.1749 19.441L21.3109 25.249L18.2042 15.855L26.3395 10.047Z" fill="#04DA8D"/>
<path d="M18.9027 17.9826L18.2034 15.8557L13.1748 19.4417L18.9027 17.9826Z" fill="#126849"/>
</g>
<defs>
<clipPath id="clip0_1246_21681">
<rect width="110" height="26.7143" fill="white" transform="translate(0 0.642822)"/>
</clipPath>
</defs>
</svg>
